HIERARCHY
ROOT Hips
{
  OFFSET 55.0212 85.5135 16.9143
  CHANNELS 6 Xposition Yposition Zposition Zrotation Xrotation Yrotation
  JOINT spine
  {
    OFFSET 0 6.3926 0.367606
    CHANNELS 3 Zrotation Xrotation Yrotation
    JOINT spine1
    {
      OFFSET 0 9.17611 0
      CHANNELS 3 Zrotation Xrotation Yrotation
      JOINT spine2
      {
        OFFSET 0 8.79238 0
        CHANNELS 3 Zrotation Xrotation Yrotation
        JOINT Neck
        {
          OFFSET 0 22.5737 1.07624
          CHANNELS 3 Zrotation Xrotation Yrotation
          JOINT Head
          {
            OFFSET 0 6.82011 0
            CHANNELS 3 Zrotation Xrotation Yrotation
            End Site
            {
              OFFSET 0 16.5085 -5.44427
            }
          }
        }
        JOINT RightShoulder
        {
          OFFSET -3.70221 9.49509 -0.515508
          CHANNELS 3 Zrotation Xrotation Yrotation
          JOINT RightArm
          {
            OFFSET 0 12.4537 0
            CHANNELS 3 Zrotation Xrotation Yrotation
            JOINT RightArmRoll
            {
              OFFSET 0 6.28686 0
              CHANNELS 3 Zrotation Xrotation Yrotation
              JOINT RightForeArm
              {
                OFFSET 0 18.3114 0
                CHANNELS 3 Zrotation Xrotation Yrotation
                JOINT RightForeArmRoll
                {
                  OFFSET 0 7.05482 0
                  CHANNELS 3 Zrotation Xrotation Yrotation
                  JOINT RightHand
                  {
                    OFFSET 0 14.1575 0
                    CHANNELS 3 Zrotation Xrotation Yrotation
                    End Site
                    {
                      OFFSET 0 0 0
                    }
                  }
                }
              }
            }
          }
        }
        JOINT LeftShoulder
        {
          OFFSET 3.70221 9.49509 -0.515508
          CHANNELS 3 Zrotation Xrotation Yrotation
          JOINT LeftArm
          {
            OFFSET 0 12.4537 0
            CHANNELS 3 Zrotation Xrotation Yrotation
            JOINT LeftArmRoll
            {
              OFFSET 0 6.28686 0
              CHANNELS 3 Zrotation Xrotation Yrotation
              JOINT LeftForeArm
              {
                OFFSET 0 18.3114 0
                CHANNELS 3 Zrotation Xrotation Yrotation
                JOINT LeftForeArmRoll
                {
                  OFFSET 0 7.05482 0
                  CHANNELS 3 Zrotation Xrotation Yrotation
                  JOINT LeftHand
                  {
                    OFFSET 0 14.1575 0
                    CHANNELS 3 Zrotation Xrotation Yrotation
                    End Site
                    {
                      OFFSET 0 0 0
                    }
                  }
                }
              }
            }
          }
        }
      }
    }
  }
  JOINT RightUpLeg
  {
    OFFSET -5.66615 -1.03903 -0.87161
    CHANNELS 3 Zrotation Xrotation Yrotation
    JOINT RightUpLegRoll
    {
      OFFSET 0 16.6005 0
      CHANNELS 3 Zrotation Xrotation Yrotation
      JOINT RightLeg
      {
        OFFSET 0 -20.5572 0
        CHANNELS 3 Zrotation Xrotation Yrotation
        JOINT RightLegRoll
        {
          OFFSET 0 20.6244 0
          CHANNELS 3 Zrotation Xrotation Yrotation
          JOINT RightFoot
          {
            OFFSET 0 17.1664 0
            CHANNELS 3 Zrotation Xrotation Yrotation
            JOINT RightToeBase
            {
              OFFSET 0 14.3502 0
              CHANNELS 3 Zrotation Xrotation Yrotation
              End Site
              {
                OFFSET 0.00608252 6.94971 -0.801061
              }
            }
          }
        }
      }
    }
  }
  JOINT LeftUpLeg
  {
    OFFSET 5.66615 -1.03903 -0.87161
    CHANNELS 3 Zrotation Xrotation Yrotation
    JOINT LeftUpLegRoll
    {
      OFFSET 0 16.6006 0
      CHANNELS 3 Zrotation Xrotation Yrotation
      JOINT LeftLeg
      {
        OFFSET 0 20.5571 0
        CHANNELS 3 Zrotation Xrotation Yrotation
        JOINT LeftLegRoll
        {
          OFFSET 0 20.8151 0
          CHANNELS 3 Zrotation Xrotation Yrotation
          JOINT LeftFoot
          {
            OFFSET 0 16.9757 0
            CHANNELS 3 Zrotation Xrotation Yrotation
            JOINT LeftToeBase
            {
              OFFSET 0 14.3502 0
              CHANNELS 3 Zrotation Xrotation Yrotation
              End Site
              {
                OFFSET -0.0272592 6.94971 -0.801061
              }
            }
          }
        }
      }
    }
  }
}
MOTION
Frames: 11
Frame Time: 0.00208333
56.7915 85.6092 15.7452 -2.1071 -4.31967 -29.0838 -0.182363 -0.874551 -0.0807108 -0.341291 2.26757 -0.148659 -0.339766 3.91263 -0.143093 -1.93244 9.67707 8.96155 -4.73561 3.76938 8.20435 59.5162 0.275528 0.112384 109.423 15.2208 4.23008 2.11714e-005 -1.56645e-007 1.87468e-006 13.6595 6.58719 -1.22425 -4.94636e-006 -4.4349e-006 -3.0117 8.02887 -4.95145 0.69769 -57.7526 -2.5575 1.46145 -110.371 15.17 -0.737818 -6.10669e-006 -4.04556e-006 1.30532e-005 -10.427 6.11048 1.1299 2.24799e-006 -4.36375e-006 2.99999 -8.02893 -4.95145 -0.697686 172.768 -4.25601 2.63784 180 7.01509e-015 178.77 176.957 8.89405 179.793 -5.56276e-007 3.61928e-006 0.201613 -20.8194 70.3695 21.7219 8.1486 25.5362 -3.07566 -171.678 -0.599826 -1.20822 4.54188e-006 -4.6773e-006 -1.10155 -0.661569 -6.82401 0.576459 3.40932e-006 7.52221e-007 0.0796237 16.8246 67.6728 -19.2554 -8.13059 25.233 3.48521 
56.7942 85.61 15.7469 -2.10502 -4.31266 -29.0778 -0.182323 -0.874974 -0.0821405 -0.341071 2.26575 -0.152243 -0.339509 3.9108 -0.14668 -1.94031 9.67841 8.97014 -4.73082 3.76715 8.21083 59.5175 0.288503 0.120128 109.417 15.2176 4.23036 2.11714e-005 -1.56645e-007 1.87468e-006 13.6623 6.5828 -1.22343 -4.94636e-006 -4.4349e-006 -3.0117 8.02887 -4.95145 0.69769 -57.7544 -2.56678 1.46749 -110.371 15.1716 -0.735218 -6.10669e-006 -4.04556e-006 1.30532e-005 -10.4288 6.11325 1.13024 2.24799e-006 -4.36375e-006 2.99999 -8.02893 -4.95145 -0.697686 172.771 -4.25003 2.63633 180 7.01509e-015 178.77 176.956 8.89038 179.793 -5.56276e-007 3.61928e-006 0.201613 -20.8163 70.3666 21.7186 8.14861 25.5363 -3.0759 -171.676 -0.589508 -1.21013 4.54188e-006 -4.6773e-006 -1.1016 -0.663526 -6.82594 0.576169 3.40932e-006 7.52221e-007 0.0796145 16.8245 67.6705 -19.2548 -8.13059 25.233 3.48521 
56.7935 85.6084 15.7452 -2.10293 -4.30492 -29.0717 -0.182263 -0.875491 -0.0836225 -0.340749 2.2637 -0.155998 -0.339147 3.90875 -0.150439 -1.94813 9.67954 8.97899 -4.72613 3.76504 8.21759 59.5191 0.30185 0.12807 109.41 15.2146 4.23084 2.11714e-005 -1.56645e-007 1.87468e-006 13.6652 6.57761 -1.2225 -4.94636e-006 -4.4349e-006 -3.0117 8.02887 -4.95145 0.69769 -57.7561 -2.57648 1.4738 -110.37 15.1734 -0.732671 -6.10669e-006 -4.04556e-006 1.30532e-005 -10.4304 6.11555 1.13052 2.24799e-006 -4.36375e-006 2.99999 -8.02893 -4.95145 -0.697686 172.774 -4.24371 2.63448 180 7.01509e-015 178.77 176.956 8.88591 179.793 -5.56276e-007 3.61928e-006 0.201613 -20.8126 70.3631 21.7148 8.14861 25.5364 -3.0761 -171.674 -0.578613 -1.21251 4.54188e-006 -4.6773e-006 -1.10169 -0.665878 -6.82788 0.575814 3.40932e-006 7.52221e-007 0.0795926 16.8245 67.6679 -19.2539 -8.13059 25.233 3.48521 
56.7893 85.6081 15.7489 -2.10083 -4.29669 -29.0655 -0.182189 -0.876073 -0.0851413 -0.340355 2.26149 -0.159872 -0.338713 3.90655 -0.154319 -1.95591 9.68052 8.98802 -4.72152 3.76301 8.22456 59.5208 0.315458 0.136153 109.403 15.2117 4.23145 2.11714e-005 -1.56645e-007 1.87468e-006 13.668 6.57186 -1.22148 -4.94636e-006 -4.4349e-006 -3.0117 8.02887 -4.95145 0.69769 -57.7578 -2.58647 1.48029 -110.37 15.1752 -0.73016 -6.10669e-006 -4.04556e-006 1.30532e-005 -10.4321 6.11752 1.13077 2.24799e-006 -4.36375e-006 2.99999 -8.02893 -4.95145 -0.697686 172.778 -4.23716 2.63238 180 7.01509e-015 178.77 176.956 8.88089 179.793 -5.56276e-007 3.61928e-006 0.201613 -20.8085 70.3593 21.7105 8.14862 25.5365 -3.07628 -171.671 -0.567313 -1.21521 4.54188e-006 -4.6773e-006 -1.10179 -0.668507 -6.82984 0.575414 3.40932e-006 7.52221e-007 0.0795618 16.8247 67.6652 -19.2529 -8.13059 25.233 3.48521 
56.7853 85.6077 15.7491 -2.09872 -4.28817 -29.0593 -0.182107 -0.876694 -0.086681 -0.339921 2.25919 -0.163814 -0.338237 3.90425 -0.158267 -1.96367 9.68143 8.99717 -4.71695 3.76103 8.23165 59.5225 0.329214 0.144315 109.396 15.209 4.23213 2.11714e-005 -1.56645e-007 1.87468e-006 13.6708 6.5658 -1.22041 -4.94636e-006 -4.4349e-006 -3.0117 8.02887 -4.95145 0.69769 -57.7594 -2.59663 1.48689 -110.37 15.177 -0.72767 -6.10669e-006 -4.04556e-006 1.30532e-005 -10.4338 6.1193 1.131 2.24799e-006 -4.36375e-006 2.99999 -8.02893 -4.95145 -0.697686 172.782 -4.23047 2.63015 180 7.01509e-015 178.77 176.956 8.87557 179.793 -5.56276e-007 3.61928e-006 0.201613 -20.8042 70.3552 21.706 8.14863 25.5367 -3.07645 -171.668 -0.555783 -1.21811 4.54188e-006 -4.6773e-006 -1.1019 -0.671293 -6.8318 0.574989 3.40932e-006 7.52221e-007 0.0795258 16.825 67.6624 -19.2519 -8.13059 25.233 3.48521 
56.7909 85.6069 15.747 -2.09662 -4.27957 -29.0531 -0.182024 -0.877325 -0.088226 -0.339477 2.25687 -0.167774 -0.337751 3.90193 -0.162233 -1.97143 9.68231 9.00634 -4.71239 3.75906 8.23876 59.5243 0.343008 0.152497 109.389 15.2062 4.23283 2.11714e-005 -1.56645e-007 1.87468e-006 13.6736 6.55965 -1.21934 -4.94636e-006 -4.4349e-006 -3.0117 8.02887 -4.95145 0.69769 -57.7611 -2.60684 1.49351 -110.369 15.1789 -0.725186 -6.10669e-006 -4.04556e-006 1.30532e-005 -10.4354 6.12103 1.13123 2.24799e-006 -4.36375e-006 2.99999 -8.02893 -4.95145 -0.697686 172.786 -4.22375 2.62789 180 7.01509e-015 178.77 176.956 8.87015 179.793 -5.56276e-007 3.61928e-006 0.201613 -20.7998 70.3511 21.7014 8.14864 25.5368 -3.07661 -171.665 -0.544195 -1.22105 4.54188e-006 -4.6773e-006 -1.10201 -0.674119 -6.83376 0.574557 3.40932e-006 7.52221e-007 0.0794885 16.8253 67.6595 -19.2508 -8.13059 25.233 3.48521 
56.7899 85.6096 15.7493 -2.09452 -4.27112 -29.0468 -0.181944 -0.877936 -0.0897605 -0.339054 2.2546 -0.171699 -0.337287 3.89966 -0.166165 -1.9792 9.68323 9.01545 -4.70781 3.75706 8.24581 59.5261 0.356727 0.160639 109.382 15.2035 4.2335 2.11714e-005 -1.56645e-007 1.87468e-006 13.6765 6.55366 -1.21828 -4.94636e-006 -4.4349e-006 -3.0117 8.02887 -4.95145 0.69769 -57.7628 -2.61695 1.50009 -110.369 15.1807 -0.722691 -6.10669e-006 -4.04556e-006 1.30532e-005 -10.4371 6.12286 1.13146 2.24799e-006 -4.36375e-006 2.99999 -8.02893 -4.95145 -0.697686 172.789 -4.2171 2.62569 180 7.01509e-015 178.77 176.955 8.86489 179.793 -5.56276e-007 3.61928e-006 0.201613 -20.7955 70.3471 21.6969 8.14865 25.5369 -3.07678 -171.662 -0.532722 -1.22389 4.54188e-006 -4.6773e-006 -1.10212 -0.676866 -6.83572 0.574137 3.40932e-006 7.52221e-007 0.0794538 16.8256 67.6567 -19.2498 -8.13059 25.233 3.48521 
56.7939 85.608 15.7416 -2.09243 -4.26302 -29.0407 -0.181875 -0.8785 -0.0912688 -0.338682 2.25244 -0.17554 -0.336874 3.89749 -0.17001 -1.98699 9.68426 9.02444 -4.70318 3.75501 8.25272 59.5277 0.370261 0.168682 109.375 15.2006 4.23407 2.11714e-005 -1.56645e-007 1.87468e-006 13.6793 6.54807 -1.21729 -4.94636e-006 -4.4349e-006 -3.0117 8.02887 -4.95145 0.69769 -57.7645 -2.62686 1.50653 -110.368 15.1825 -0.72017 -6.10669e-006 -4.04556e-006 1.30532e-005 -10.4388 6.12492 1.13173 2.24799e-006 -4.36375e-006 2.99999 -8.02893 -4.95145 -0.697686 172.793 -4.21061 2.62367 180 7.01509e-015 178.77 176.955 8.86003 179.792 -5.56276e-007 3.61928e-006 0.201613 -20.7916 70.3434 21.6928 8.14866 25.537 -3.07697 -171.659 -0.521538 -1.22651 4.54188e-006 -4.6773e-006 -1.10222 -0.679416 -6.83767 0.57375 3.40932e-006 7.52221e-007 0.0794255 16.8257 67.654 -19.2489 -8.13059 25.233 3.48521 
56.7967 85.605 15.7434 -2.09036 -4.2555 -29.0346 -0.181821 -0.878988 -0.0927351 -0.338392 2.25046 -0.179243 -0.336546 3.89551 -0.173717 -1.99483 9.68545 9.03321 -4.69846 3.75286 8.2594 59.5292 0.383496 0.176565 109.369 15.1975 4.23448 2.11714e-005 -1.56645e-007 1.87468e-006 13.6821 6.54312 -1.21639 -4.94636e-006 -4.4349e-006 -3.0117 8.02887 -4.95145 0.69769 -57.7662 -2.63643 1.51275 -110.368 15.1842 -0.717607 -6.10669e-006 -4.04556e-006 1.30532e-005 -10.4405 6.12736 1.13203 2.24799e-006 -4.36375e-006 2.99999 -8.02893 -4.95145 -0.697686 172.796 -4.2044 2.62192 180 7.01509e-015 178.77 176.955 8.85581 179.792 -5.56276e-007 3.61928e-006 0.201613 -20.7881 70.3401 21.6891 8.14866 25.5371 -3.07718 -171.657 -0.510817 -1.22875 4.54188e-006 -4.6773e-006 -1.10229 -0.681649 -6.83961 0.573415 3.40932e-006 7.52221e-007 0.0794074 16.8258 67.6515 -19.2481 -8.13059 25.233 3.48521 
56.8004 85.6059 15.7508 -2.0883 -4.24876 -29.0287 -0.181788 -0.879373 -0.0941439 -0.338215 2.24872 -0.182759 -0.336332 3.89378 -0.177234 -2.00272 9.68687 9.04169 -4.69361 3.75059 8.26577 59.5304 0.396322 0.184229 109.362 15.1942 4.23469 2.11714e-005 -1.56645e-007 1.87468e-006 13.685 6.53905 -1.21562 -4.94636e-006 -4.4349e-006 -3.0117 8.02887 -4.95145 0.69769 -57.7679 -2.64554 1.51869 -110.367 15.1858 -0.714985 -6.10669e-006 -4.04556e-006 1.30532e-005 -10.4422 6.13032 1.13239 2.24799e-006 -4.36375e-006 2.99999 -8.02893 -4.95145 -0.697686 172.799 -4.19855 2.62055 180 7.01509e-015 178.77 176.955 8.85245 179.792 -5.56276e-007 3.61928e-006 0.201613 -20.7852 70.3374 21.6861 8.14867 25.5372 -3.07744 -171.655 -0.50073 -1.23047 4.54188e-006 -4.6773e-006 -1.10233 -0.683448 -6.84153 0.57315 3.40932e-006 7.52221e-007 0.0794034 16.8256 67.6493 -19.2474 -8.13059 25.233 3.48521 
56.8002 85.6121 15.7488 -2.08625 -4.24303 -29.0229 -0.181784 -0.879625 -0.0954792 -0.338181 2.2473 -0.186036 -0.336264 3.89236 -0.180511 -2.01068 9.68858 9.04979 -4.68862 3.74816 8.27173 59.5314 0.408627 0.191613 109.357 15.1905 4.23463 2.11714e-005 -1.56645e-007 1.87468e-006 13.6878 6.5361 -1.21501 -4.94636e-006 -4.4349e-006 -3.0117 8.02887 -4.95145 0.69769 -57.7697 -2.65407 1.52426 -110.367 15.1872 -0.712289 -6.10669e-006 -4.04556e-006 1.30532e-005 -10.444 6.13395 1.13282 2.24799e-006 -4.36375e-006 2.99999 -8.02893 -4.95145 -0.697686 172.801 -4.19317 2.61966 180 7.01509e-015 178.77 176.954 8.85021 179.792 -5.56276e-007 3.61928e-006 0.201613 -20.7832 70.3355 21.6839 8.14867 25.5372 -3.07774 -171.654 -0.491452 -1.23154 4.54188e-006 -4.6773e-006 -1.10234 -0.684694 -6.84342 0.572976 3.40932e-006 7.52221e-007 0.0794173 16.8251 67.6474 -19.247 -8.13059 25.233 3.48521 
